<svg xmlns="http://www.w3.org/2000/svg" width="500" height="300" viewBox="0 0 500 300">
  <g id="Group_689" data-name="Group 689" transform="translate(-780 -2049)">
    <rect id="Rectangle_34" data-name="Rectangle 34" width="500" height="300" transform="translate(780 2049)" fill="#fff"/>
    <g id="Group_670" data-name="Group 670" transform="translate(8700.609 1146.657)">
      <g id="Group_669" data-name="Group 669" transform="translate(-7810 1027)">
        <g id="Group_250" data-name="Group 250">
          <path id="Path_59" data-name="Path 59" d="M760.2,608.885H536.828c-15.332,0-27.761-13.516-27.761-30.191h0c0-16.674,12.429-30.191,27.761-30.191H760.2c15.331,0,27.76,13.517,27.76,30.191h0c0,16.674-12.429,30.191-27.76,30.191Z" transform="translate(-509.067 -548.504)" fill="#c00020"/>
        </g>
        <g id="Group_256" data-name="Group 256" transform="translate(27.891 17.137)">
          <g id="Group_251" data-name="Group 251" transform="translate(0 0)">
            <path id="Path_60" data-name="Path 60" d="M598.428,605.687a7.588,7.588,0,0,0-7.774,7.744c0,4.542,3.319,7.714,8.073,7.714h2.616v-3h-2.586a4.568,4.568,0,0,1-4.8-4.745,4.5,4.5,0,1,1,8.98,0v7.743H606.2v-7.833A7.447,7.447,0,0,0,598.428,605.687Z" transform="translate(-590.654 -600.626)" fill="#fff"/>
            <path id="Path_61" data-name="Path 61" d="M792.071,606.6h0a3.983,3.983,0,0,0-1.908.965,4.118,4.118,0,0,0-1.188,1.828h-.013v-2.639h-2.939v14.918h3.239V613.6a4.017,4.017,0,0,1,1.176-3.089,4.332,4.332,0,0,1,3.287-.933v-3.063A5.816,5.816,0,0,0,792.071,606.6Z" transform="translate(-719.235 -601.156)" fill="#fff"/>
            <path id="Path_62" data-name="Path 62" d="M662.054,590.882h-3.268v13.045c0,3.019-1.715,4.895-4.475,4.895-2.695,0-4.505-1.919-4.505-4.775a4.52,4.52,0,0,1,4.8-4.744H657.2v-3H654.58c-4.828,0-8.073,3.1-8.073,7.714a7.5,7.5,0,0,0,7.774,7.743c3.869,0,7.773-2.394,7.773-7.743Z" transform="translate(-627.413 -590.882)" fill="#fff"/>
            <path id="Path_63" data-name="Path 63" d="M735.061,605.687a7.589,7.589,0,0,0-7.774,7.744c0,4.542,3.32,7.714,8.074,7.714h2.615v-3H735.39a4.569,4.569,0,0,1-4.8-4.745,4.5,4.5,0,1,1,8.98,0v7.743h3.269v-7.833A7.448,7.448,0,0,0,735.061,605.687Z" transform="translate(-680.578 -600.626)" fill="#fff"/>
            <path id="Path_64" data-name="Path 64" d="M694.158,618.961c0,3.986-1.958,6.272-5.373,6.272h-.975v2.939h.946c5.349,0,8.672-3.5,8.672-9.121V607.264h-3.269Z" transform="translate(-654.596 -601.664)" fill="#fff"/>
            <path id="Path_65" data-name="Path 65" d="M822.834,605.687a7.589,7.589,0,0,0-7.774,7.744c0,4.542,3.32,7.714,8.073,7.714h2.616v-3h-2.586a4.568,4.568,0,0,1-4.8-4.745,4.5,4.5,0,1,1,8.98,0v7.743h3.269v-7.833A7.448,7.448,0,0,0,822.834,605.687Z" transform="translate(-738.345 -600.626)" fill="#fff"/>
          </g>
          <g id="Group_255" data-name="Group 255" transform="translate(95.553 0.122)">
            <path id="Path_66" data-name="Path 66" d="M1062.932,639.2a2.2,2.2,0,1,0,2.2,2.2A2.195,2.195,0,0,0,1062.932,639.2Z" transform="translate(-995.563 -622.806)" fill="#fff"/>
            <g id="Group_253" data-name="Group 253">
              <path id="Path_67" data-name="Path 67" d="M877.632,596.654h-2.614v3H877.6a4.516,4.516,0,0,1,4.8,4.74c0,2.854-1.809,4.77-4.5,4.77-2.758,0-4.471-1.874-4.471-4.89V591.239h-3.265v13.122c0,5.344,3.9,7.736,7.766,7.736a7.5,7.5,0,0,0,7.766-7.736C885.7,599.751,882.456,596.654,877.632,596.654Z" transform="translate(-870.165 -591.239)" fill="#fff"/>
              <path id="Path_68" data-name="Path 68" d="M1013.206,606.431a7.5,7.5,0,0,0-7.767,7.736c0,4.61,3.241,7.707,8.065,7.707h2.614v-3h-2.584a4.516,4.516,0,0,1-4.8-4.74c0-2.854,1.809-4.77,4.5-4.77,2.758,0,4.471,1.874,4.471,4.89v-1.165h1.9a1.365,1.365,0,0,1,1.365,1.365v-.29C1020.971,608.823,1017.071,606.431,1013.206,606.431Z" transform="translate(-959.195 -601.238)" fill="#fff"/>
              <path id="Path_69" data-name="Path 69" d="M1015.8,651.468c3.671.144,4.3.12,4.335.119,3.829-.045,7.656-2.442,7.656-7.735V639.14h-3.265v4.621c0,2.985-1.678,4.852-4.387,4.89a38.491,38.491,0,0,1-4.31-.119Z" transform="translate(-966.012 -622.765)" fill="#fff"/>
              <path id="Path_70" data-name="Path 70" d="M1043.224,625.916h-1.9v4.521h3.265v-3.156A1.365,1.365,0,0,0,1043.224,625.916Z" transform="translate(-982.811 -614.061)" fill="#fff"/>
              <path id="Path_71" data-name="Path 71" d="M929.28,610.429V596.578h-3.312V610.7c0,3.069,1.859,4.829,5.1,4.829a11.544,11.544,0,0,0,1.16-.058v-2.93c-.143.006-.281.006-.438.006C930.1,612.547,929.28,611.854,929.28,610.429Z" transform="translate(-906.891 -594.753)" fill="#fff"/>
              <g id="Group_252" data-name="Group 252" transform="translate(27.029 5.194)">
                <path id="Path_72" data-name="Path 72" d="M957.4,606.431a7.9,7.9,0,1,0,8.137,7.866A7.845,7.845,0,0,0,957.4,606.431Zm0,12.811a4.932,4.932,0,1,1,4.765-4.945A4.712,4.712,0,0,1,957.4,619.242Z" transform="translate(-949.229 -606.431)" fill="#fff"/>
              </g>
            </g>
            <g id="Group_254" data-name="Group 254" transform="translate(70.463 5.204)">
              <path id="Path_73" data-name="Path 73" d="M1079.619,614.3a4.542,4.542,0,0,1,4.771-4.919,7.159,7.159,0,0,1,3.259.674v-2.885a9.6,9.6,0,0,0-3.587-.707,7.838,7.838,0,0,0,0,15.676,10.531,10.531,0,0,0,3.7-.71v-2.918a8.538,8.538,0,0,1-3.377.68,4.574,4.574,0,0,1-4.771-4.89" transform="translate(-1076.284 -606.461)" fill="#fff"/>
              <path id="Path_74" data-name="Path 74" d="M1194.539,606.461a5.586,5.586,0,0,0-4.7,2.62l-.3.481-.246-.512a4.217,4.217,0,0,0-4.327-2.589,4.508,4.508,0,0,0-4.029,2.315l-.594,1.328v-3.226h-2.918V621.72h3.217v-8.909a3.31,3.31,0,0,1,3.253-3.433,3.173,3.173,0,0,1,3.195,3.433v8.909h3.216v-8.909a3.216,3.216,0,1,1,6.418,0v8.909h3.216v-9.205c0-3.9-1.917-6.054-5.4-6.054" transform="translate(-1142.848 -606.461)" fill="#fff"/>
              <path id="Path_75" data-name="Path 75" d="M1127.545,619.129a4.877,4.877,0,1,1,4.712-4.89,4.659,4.659,0,0,1-4.712,4.89m0-12.668a7.811,7.811,0,1,0,8.046,7.779,7.758,7.758,0,0,0-8.046-7.779" transform="translate(-1104.705 -606.461)" fill="#fff"/>
            </g>
          </g>
        </g>
      </g>
    </g>
  </g>
</svg>
