<svg xmlns="http://www.w3.org/2000/svg" width="300" height="200" viewBox="0 0 300 200">
  <g id="Group_4089" data-name="Group 4089" transform="translate(-500 -3161)">
    <rect id="Rectangle_9" data-name="Rectangle 9" width="300" height="200" transform="translate(500 3161)" fill="#fff"/>
    <g id="Medium-Logo-Black-RGB_300x80" transform="translate(571 3231.9)">
      <path id="Path_122" data-name="Path 122" d="M23.621,29.463A11.811,11.811,0,1,1,11.811,17.6,11.84,11.84,0,0,1,23.621,29.463" transform="translate(0 -0.238)"/>
      <path id="Path_123" data-name="Path 123" d="M59.058,30.081c0,6.194-2.625,11.181-5.879,11.181S47.3,36.275,47.3,30.081,49.925,18.9,53.179,18.9c3.2,0,5.879,5.039,5.879,11.181" transform="translate(-22.471 -0.855)"/>
      <path id="Path_124" data-name="Path 124" d="M75.9,31.126c0,5.512-.945,10.026-2.1,10.026s-2.1-4.514-2.1-10.026S72.645,21.1,73.8,21.1c1.207,0,2.1,4.514,2.1,10.026" transform="translate(-34.063 -1.9)"/>
      <path id="Path_125" data-name="Path 125" d="M117.9,18.412h0l.052-.262h-6.719L104.99,32.8,98.744,18.15H91.5v.262h.052c1.207.262,1.837.682,1.837,2.152V37.992c0,1.47-.63,1.89-1.837,2.152H91.5v.262h4.934v-.262h-.052c-1.207-.262-1.837-.682-1.837-2.152V21.562l8.031,18.845h.472l8.241-19.37V38.412c-.1,1.155-.735,1.522-1.837,1.785H109.4v.262h8.556V40.2H117.9c-1.1-.262-1.732-.63-1.837-1.785V20.564h0c0-1.47.63-1.89,1.837-2.152m3.937,11.5c.157-3.15,1.26-5.407,3.15-5.407a2.155,2.155,0,0,1,1.47.577c.787.787,1.207,2.415,1.1,4.882H121.84Zm-.1.892h10.026v-.052a7.531,7.531,0,0,0-2.047-5.512,6.836,6.836,0,0,0-4.672-1.732h-.052a6.639,6.639,0,0,0-2.887.63,6.455,6.455,0,0,0-2.415,1.89,9.908,9.908,0,0,0-1.942,5.249V32.48c.1,4.672,2.625,8.4,7.086,8.4,3.937,0,6.194-2.887,6.771-6.719l-.262-.1a5.026,5.026,0,0,1-4.829,3.15c-2.835-.1-4.987-2.94-4.777-6.4M143.1,37.152a1.927,1.927,0,0,1-1.942,1.207,2.748,2.748,0,0,1-2.362-1.785,11.294,11.294,0,0,1-1-5.039c0-4.3,1.312-7.086,3.412-7.086A2.036,2.036,0,0,1,143.1,25.6V37.152Zm6.614,3.045c-1.207-.315-1.837-.735-1.837-2.31V17.1l-7.454,2.2v.262h.052a2.77,2.77,0,0,1,2.152.42,1.794,1.794,0,0,1,.472,1.365v2.835a4.839,4.839,0,0,0-2.677-.682,7.071,7.071,0,0,0-5.512,2.572,10.23,10.23,0,0,0-2.257,6.771c0,4.829,2.362,8.084,5.932,8.084a4.727,4.727,0,0,0,4.514-3.045v2.572h6.666l-.052-.262Zm6.4-20.262a2.677,2.677,0,1,0-2.677,2.677,2.623,2.623,0,0,0,2.677-2.677M157.85,40.2c-1.207-.315-1.837-.735-1.837-2.31h0V23.557L149.346,25.5v.262h.053c1.47.1,1.837.63,1.837,2.31V40.459H157.9l-.053-.262Zm17.165,0c-1.207-.315-1.837-.735-1.837-2.31V23.557l-6.4,1.89v.262h.052c1.207.1,1.522.63,1.522,2.362v9.081a2.27,2.27,0,0,1-2.047,1.26c-1.47,0-2.257-1-2.257-2.782V23.557L157.378,25.5v.262h.052c1.47.1,1.837.63,1.837,2.31v7.664a8.012,8.012,0,0,0,.157,1.575l.1.525a4.063,4.063,0,0,0,4.357,3.1,4.861,4.861,0,0,0,4.462-3.1v2.625h6.667V40.2Zm25.931.262V40.2h-.053c-1.312-.315-1.837-.892-1.837-2.047V28.386c0-3.045-1.732-4.829-4.567-4.829a4.675,4.675,0,0,0-4.514,3.1,4.112,4.112,0,0,0-4.357-3.1,4.348,4.348,0,0,0-4.252,2.835V23.609L174.7,25.446v.262h.053c1.417.1,1.837.63,1.837,2.31V40.511h6.247v-.262h-.053c-1.05-.262-1.417-.682-1.417-1.89V27.126a2.093,2.093,0,0,1,1.942-1.417c1.365,0,2.1.945,2.1,2.835V40.459h6.247V40.2H191.6c-1.05-.262-1.417-.682-1.417-1.89V28.386a7.834,7.834,0,0,0-.1-1.1,2.23,2.23,0,0,1,2.047-1.575c1.417,0,2.1.945,2.1,2.835V40.459Z" transform="translate(-43.47)"/>
    </g>
  </g>
</svg>
