<svg xmlns="http://www.w3.org/2000/svg" width="206.701" height="67.601" viewBox="0 0 206.701 67.601">
  <g id="idf-logo-full-expanded-hds" transform="translate(0 0.101)">
    <path id="Path_90" data-name="Path 90" d="M0,33.8A33.8,33.8,0,1,1,33.9,67.5h-.1A33.865,33.865,0,0,1,0,33.8m1,0A32.8,32.8,0,1,0,33.9,1h-.1A32.819,32.819,0,0,0,1,33.8Z" fill="#2b2b2b"/>
    <path id="Path_91" data-name="Path 91" d="M24,23.4a8.389,8.389,0,0,0,2.8-1.8,9.9,9.9,0,0,0,1.8,3.9,6.113,6.113,0,0,0-2.2,1.3A7.343,7.343,0,0,0,24,23.4m11.4-6a8.982,8.982,0,0,0-3.6.5,10.7,10.7,0,0,0-2-5.2,10.194,10.194,0,0,1,4.7-.9c1.8.3,1,4.1.9,5.6ZM37.1,51l1.1.7H29c.9-.5,1.7-.9,1.8-1.3a11.854,11.854,0,0,0,0-5.3,6.886,6.886,0,0,0-3.9-3.4,6.7,6.7,0,0,0-1.8.7l1,.7a6.358,6.358,0,0,0-2.2,2.4,12.878,12.878,0,0,0-1.7-1.6,5.894,5.894,0,0,1,2.3-2.4l.5.5a3.293,3.293,0,0,1,1.3-.7A24.153,24.153,0,0,0,21,40v1.8a12.734,12.734,0,0,0-5.8.7c0-.2-.6-3,.1-4.7s4.5.1,6.1.4c-.1.4-.2.9-.3,1.3a16.167,16.167,0,0,1,3.8-.2,5.456,5.456,0,0,0-2.5-2,11.18,11.18,0,0,1-2.9-1.9l-1.5.8A10.287,10.287,0,0,0,15.4,31a15.214,15.214,0,0,0,4.2-1.6c.2,1.4.5,4.3,1.5,5.6a3.022,3.022,0,0,0-1.6.5A10.389,10.389,0,0,0,22.9,37a3.787,3.787,0,0,1,0-1.5h-.7a7.584,7.584,0,0,1,.1-2.6,4.421,4.421,0,0,1,2,.2,5.421,5.421,0,0,0-.6,2.5h-.8a2.934,2.934,0,0,0,.4,1.6,5.685,5.685,0,0,1,3.2,2.5l2.7.7a3.194,3.194,0,0,0-.3-1.4l-.7.2A4.637,4.637,0,0,0,27,36.9a6.789,6.789,0,0,1,2-.7,7.172,7.172,0,0,1,.7,2.5h-.8a4.418,4.418,0,0,1,.6,1.6l1.6.7A8.968,8.968,0,0,0,29,34.5l-1.6,1.3c-.5-2.1-3.6-4.8-3.6-4.8a12.662,12.662,0,0,0,3.3-2.4c1.9,1,3.3,3.9,3.6,4.7l-1.5.8L31,35.6l.7,1a4,4,0,0,0,1-1.2l-1-.3A7.888,7.888,0,0,0,33,31.8a5.048,5.048,0,0,0,2.3.9,6.971,6.971,0,0,1-1.2,3.4l-1-.5a4.248,4.248,0,0,1-1,1.7c.6,1.3,1,2.8,1.6,4.2,3.6-3,2.6-8.7,1.9-11.3l-1.7,1.3A13.489,13.489,0,0,0,29.2,27c.1-.1,2.2-2.7,4.2-3.2s3,3.9,3.9,5.6l-1.3.7a12.731,12.731,0,0,1,1.9,4.5l1.6-1.3-.7-.3a5.894,5.894,0,0,1,2.3-2.4,7.965,7.965,0,0,0,1.7,1.5,6.358,6.358,0,0,0-2.2,2.4l-.9-.9A11.666,11.666,0,0,0,38,36.7a11.6,11.6,0,0,1-.3,3.7,7.487,7.487,0,0,1,3.3-1,4.088,4.088,0,0,1,2.1-2.7L42,35.4c1.2-1.2,3.5-3.4,4.8-3.7a10.537,10.537,0,0,1,2.7,3.9,11.636,11.636,0,0,0-5.2,2.6l-.9-1.3a4.42,4.42,0,0,0-1.1,2.4,23.634,23.634,0,0,1,4.6.2,4.879,4.879,0,0,0,.1-1.7c.8-.1,4,0,5.8,1.3a14.1,14.1,0,0,0-.7,4.1s-3.7-1.6-5.8-1.2a13.321,13.321,0,0,0,.5-1.9,13.219,13.219,0,0,0-6.2.9l2,.4a1.854,1.854,0,0,0,.2-.7,5.581,5.581,0,0,1,2.9,1.6,3.865,3.865,0,0,0-1.2,1.9,7.3,7.3,0,0,0-2.9-1.5l.7-1.1a12.212,12.212,0,0,0-2.7-.1L38,42.6a5.957,5.957,0,0,0-1.4,2.1,2.3,2.3,0,0,1,.4,1.4A1.886,1.886,0,0,1,36,48a4.617,4.617,0,0,0,1.1,3Zm-1-5.1a.876.876,0,0,0-.5-1,1.1,1.1,0,0,0-.1,1.9.779.779,0,0,0,.6-.9Zm-.7-1.8c-.7.2-1,1-.8,2.1a2.28,2.28,0,0,1,.7-1.9c.3-.2.1-.3.1-.3h0ZM29.3,23a13.046,13.046,0,0,0-3.8-4.6,11.586,11.586,0,0,1,4.1-2.5c1.8-.4,2.4,3.9,2.9,5.4l-1.7.7a2.775,2.775,0,0,1,0,1.8,9.363,9.363,0,0,0-.4-1.6ZM15.8,33.1c-.4.5-.5,2.7-.4,4.2a16.778,16.778,0,0,0-5.9-.7,10.045,10.045,0,0,0,.4-4.2C10.8,33.1,14.4,33.2,15.8,33.1Zm9.1-4.8A9.026,9.026,0,0,0,21,29.6c-.1-1.9-1.9-4.6-2.8-6a18.115,18.115,0,0,0,5-1.7c-.4,1.8.6,4.6,1.7,6.4Zm15-8.8a7.575,7.575,0,0,0-3,0c-.2-1.3-.4-4,.1-5.1a8.637,8.637,0,0,1,3.9.3,9.879,9.879,0,0,0-1,4.8ZM23.2,21.1s-1.7-2.5-3.1-3a8.331,8.331,0,0,0,2-2.2,7.23,7.23,0,0,1,3,3A7.939,7.939,0,0,0,23.2,21.1ZM42.7,28c1.9-1,3.8-4.6,3.8-4.6a13.807,13.807,0,0,0,3.1,2.8,10.124,10.124,0,0,1-3.7,4.6,5.241,5.241,0,0,0-1-1.1,6.908,6.908,0,0,0-1.7,3,9.5,9.5,0,0,1,1.3-3.3Zm9,10.3c.2-.7-.7-3-1.5-4.6a15.1,15.1,0,0,0,6.5-2.1,12.457,12.457,0,0,0,1.5,4.6c-1.2-.2-5.1,1.3-6.5,2.1Zm-3.1-8.5c1.6-1,3.8-3.1,4.3-4.8a15.38,15.38,0,0,0,3.6,3.6c-1.4.8-4.2,2.5-5.1,4a7.524,7.524,0,0,0-2.8-2.8Zm-8-8c.6-1.2,1.9-4.6,1.8-5.6a11.074,11.074,0,0,0,4,1.3A15.314,15.314,0,0,0,44.7,23c-1.3-.7-3.4-1.5-4-1.3h0Zm-1.3,6a10.376,10.376,0,0,1-1.7,3.7,10.217,10.217,0,0,0,1-3.9L37,27.2c1-1.3,1.2-4.2,1.3-5.6A13.555,13.555,0,0,0,42.6,23c-1.2,1-2,3.6-2.2,5.4Zm-5.9-7.9a6.71,6.71,0,0,0,2.8-.6,10.974,10.974,0,0,0,.8,4,6.71,6.71,0,0,0-2.8.6,10.974,10.974,0,0,0-.8-4Zm19.1.9a7.8,7.8,0,0,0-2.4,3,6.248,6.248,0,0,0-2.2-1c.4-1,1.1-3,1.8-3.6a7.607,7.607,0,0,1,2.8,1.5S52.5,20.8,52.5,20.8ZM15.8,28.5c-.6-1.6-3.1-3.5-3.1-3.5a11.6,11.6,0,0,0,2.4-2,7.826,7.826,0,0,1,3.2,3.3A10.411,10.411,0,0,0,15.8,28.5Z" fill="#2b2b2b"/>
    <path id="Path_92" data-name="Path 92" d="M16.5,51.3H51v.5H16.5Z" fill="#2b2b2b"/>
    <path id="Path_93" data-name="Path 93" d="M14.5,54.7h-.2a28.244,28.244,0,0,1-8.9-18c.1-.2.2-.2.4-.2l.1.1a27.869,27.869,0,0,0,8.8,17.6.3.3,0,0,1,0,.4h-.2S14.5,54.7,14.5,54.7Z" fill="#2b2b2b"/>
    <path id="Path_94" data-name="Path 94" d="M53,54.7h-.2a.3.3,0,0,1,0-.4,27.872,27.872,0,0,0,8.8-17.7c-.1-.2,0-.3.2-.4s.3,0,.4.2a.367.367,0,0,1-.1.3,28.734,28.734,0,0,1-8.9,18Z" fill="#2b2b2b"/>
    <g id="Group_676" data-name="Group 676">
      <path id="Path_95" data-name="Path 95" d="M81.6,30.8H77.9v-.4h.4c.2,0,.3,0,.4-.1.1,0,.2-.1.3-.2s.1-.2.1-.4V23.8a.367.367,0,0,0-.1-.3c0-.1-.1-.2-.3-.2-.1,0-.3-.1-.4-.1s-.3-.1-.4-.1v-.4h3.7v.4h-.4c-.2,0-.3.1-.4.1s-.2.1-.3.2c0,.1-.1.2-.1.3v5.9a.367.367,0,0,0,.1.3c.1.1.1.2.3.2.1,0,.2.1.4.1s.3.1.5.1l-.1.5Z" fill="#2b2b2b"/>
      <path id="Path_96" data-name="Path 96" d="M90.9,23.1a1.087,1.087,0,0,0-.5.1c-.2.1-.4.1-.5.2a2.186,2.186,0,0,0-.3.5c0,.3-.1.6-.1,1v5.9H89l-4.9-6.6v4.2a3.42,3.42,0,0,0,.1,1.1c.1.3.1.4.3.5a.764.764,0,0,0,.5.2,1.75,1.75,0,0,0,.5.1v.5H82.2v-.4a1.087,1.087,0,0,0,.5-.1c.2-.1.4-.1.5-.2a2.186,2.186,0,0,0,.3-.5c0-.2.1-.6.1-1.1v-4a.9.9,0,0,0-.1-.5c-.1-.2-.1-.3-.2-.4a1.628,1.628,0,0,0-.6-.3,1.268,1.268,0,0,0-.6-.1v-.4h2.3L89,29V25.1a3.42,3.42,0,0,0-.1-1.1c-.1-.3-.1-.4-.3-.5-.1-.1-.3-.1-.5-.2a1.268,1.268,0,0,0-.6-.1v-.4h3.3l.1.3Z" fill="#2b2b2b"/>
      <path id="Path_97" data-name="Path 97" d="M98.2,24.9h-.4a1.69,1.69,0,0,0-.2-.5,2.186,2.186,0,0,0-.3-.5,1.756,1.756,0,0,0-.4-.5.758.758,0,0,0-.4-.2H95.3v6.5a.367.367,0,0,0,.1.3c.1.1.1.2.3.2.1,0,.2.1.4.1a4.331,4.331,0,0,1,.5.1v.4H92.8v-.4h.5a4.331,4.331,0,0,0,.5-.1c.1,0,.2-.1.3-.2s.1-.2.1-.4V23.2H93a.758.758,0,0,0-.4.2,2.181,2.181,0,0,0-.4.5,2.186,2.186,0,0,1-.3.5c-.1.2-.1.4-.2.5h-.6V22.7h7.1v2.2Z" fill="#2b2b2b"/>
      <path id="Path_98" data-name="Path 98" d="M105.6,28.4l-.2,2.4H98.7v-.4h.5c.2,0,.3-.1.4-.1.1-.1.2-.1.3-.2,0-.1.1-.2.1-.3V23.9a.367.367,0,0,0-.1-.3c0-.1-.1-.2-.3-.2-.1,0-.2-.1-.4-.1s-.3-.1-.4-.1v-.4h6.3v2h-.4a2.044,2.044,0,0,0-.5-.9c-.3-.3-.5-.5-.7-.5h-2.3v3.2h.9c.3,0,.5,0,.6-.1s.3-.1.4-.3a.758.758,0,0,0,.2-.4,1.087,1.087,0,0,0,.1-.5h.4v3.2h-.4c0-.2-.1-.4-.1-.6-.1-.2-.1-.4-.2-.4-.1-.1-.3-.2-.4-.3a3.536,3.536,0,0,0-.6-.1h-.9v2.4a1.268,1.268,0,0,0,.1.6.769.769,0,0,0,.2.3c.1.1.2.1.4.1h1.7a.6.6,0,0,0,.4-.1c.2,0,.3-.1.3-.2a5.547,5.547,0,0,0,.6-.8l.4-.8h.3v-.2Z" fill="#2b2b2b"/>
      <path id="Path_99" data-name="Path 99" d="M114.4,30.8h-2.2c-.5-.8-.9-1.4-1.3-2a19.225,19.225,0,0,0-1.3-1.7h-.8v2.6a.6.6,0,0,0,.1.4c0,.1.1.2.3.2.1,0,.2.1.4.1h.4v.4h-3.4v-.4h.4c.2,0,.3,0,.4-.1a.215.215,0,0,0,.2-.2c.1-.1.1-.2.1-.4V23.8a.6.6,0,0,0-.1-.4c0-.1-.1-.2-.3-.2-.1,0-.2-.1-.4-.1s-.3,0-.4-.1v-.4h3.7a3.4,3.4,0,0,1,1,.1,6.891,6.891,0,0,1,.8.3l.6.6a2,2,0,0,1,.2.9,1.949,1.949,0,0,1-.1.8,1.838,1.838,0,0,1-1,1,6.889,6.889,0,0,1-.8.3c.4.5.7,1,1,1.3.3.4.6.8,1,1.3.2.2.3.4.5.5a1.381,1.381,0,0,1,.4.3c.1.1.2.1.4.1h.4v.7h-.2Zm-3-6a1.414,1.414,0,0,0-1.6-1.6h-1v3.5h.7a1.9,1.9,0,0,0,1.3-.5A1.974,1.974,0,0,0,111.4,24.8Z" fill="#2b2b2b"/>
      <path id="Path_100" data-name="Path 100" d="M122.2,30.8h-3.4v-.4c.3,0,.5-.1.7-.1.2-.1.3-.1.3-.2v-.2l-.7-1.8h-2.8a4.874,4.874,0,0,1-.3.7c-.1.2-.1.4-.2.5,0,.2-.1.3-.1.4V30c0,.2.1.3.4.4a1.949,1.949,0,0,0,.8.1v.3h-3.1v-.4a.756.756,0,0,0,.4-.1.756.756,0,0,1,.4-.1,1.381,1.381,0,0,0,.4-.3.764.764,0,0,0,.2-.5c.4-1,.9-2.2,1.3-3.4.5-1.3.9-2.4,1.3-3.4h.5l2.7,7c.1.1.1.3.2.4l.3.3a.367.367,0,0,0,.3.1c.1,0,.3.1.4.1v.3ZM119,27.5l-1.2-3.1-1.2,3.1Z" fill="#2b2b2b"/>
      <path id="Path_101" data-name="Path 101" d="M126.1,31a3.529,3.529,0,0,1-1.4-.3,5.025,5.025,0,0,1-1.2-.8,5.67,5.67,0,0,1-.8-1.3,4.671,4.671,0,0,1-.3-1.7,5.662,5.662,0,0,1,.3-1.8,6.376,6.376,0,0,1,.8-1.4,3.449,3.449,0,0,1,1.2-.9,4.013,4.013,0,0,1,1.5-.3,3.749,3.749,0,0,1,1.1.1,3.552,3.552,0,0,1,.9.4l.2-.4h.5l.1,2.9h-.5l-.3-.9a5.939,5.939,0,0,0-.4-.8,1.7,1.7,0,0,0-.6-.6,2.388,2.388,0,0,0-.9-.2,2.959,2.959,0,0,0-1,.2,2.7,2.7,0,0,0-.8.7,3.337,3.337,0,0,0-.5,1.2,7.772,7.772,0,0,0-.2,1.6,5.9,5.9,0,0,0,.2,1.4,2.384,2.384,0,0,0,.6,1.1,2.361,2.361,0,0,0,.9.8,2.016,2.016,0,0,0,1.1.3,2.769,2.769,0,0,0,.9-.1,1.612,1.612,0,0,0,.7-.4,2.652,2.652,0,0,0,.5-.6,4.347,4.347,0,0,0,.4-.7l.4.2a3.358,3.358,0,0,1-1.3,1.7A4.2,4.2,0,0,1,126.1,31Z" fill="#2b2b2b"/>
      <path id="Path_102" data-name="Path 102" d="M136.6,24.9h-.4a1.69,1.69,0,0,0-.2-.5,2.185,2.185,0,0,0-.3-.5,1.756,1.756,0,0,0-.4-.5c-.2-.2-.3-.2-.4-.2h-1.2v6.5a.367.367,0,0,0,.1.3c.1.1.1.2.3.2.1,0,.2.1.4.1a4.331,4.331,0,0,1,.5.1v.4h-3.8v-.4h.5a4.331,4.331,0,0,0,.5-.1c.1,0,.2-.1.3-.2s.1-.2.1-.4V23.2h-1.2a.758.758,0,0,0-.4.2,2.181,2.181,0,0,0-.4.5,2.186,2.186,0,0,1-.3.5c-.1.2-.1.4-.2.5h-.4V22.7h7.1v2.2Z" fill="#2b2b2b"/>
      <path id="Path_103" data-name="Path 103" d="M140.8,30.8h-3.7v-.4h.4c.2,0,.3,0,.4-.1.1,0,.2-.1.3-.2s.1-.2.1-.4V23.8a.367.367,0,0,0-.1-.3c-.1-.1-.1-.2-.3-.2-.1,0-.3-.1-.4-.1s-.3-.1-.4-.1v-.4h3.7v.4h-.4c-.1,0-.3.1-.4.1s-.2.1-.3.2a.367.367,0,0,0-.1.3v5.9a.367.367,0,0,0,.1.3c.1.1.1.2.3.2.1,0,.2.1.4.1s.3.1.5.1v.5Z" fill="#2b2b2b"/>
      <path id="Path_104" data-name="Path 104" d="M148.4,23.7a3.224,3.224,0,0,1,.8,1.4,4.844,4.844,0,0,1,.3,1.8,5.663,5.663,0,0,1-.3,1.8,3.045,3.045,0,0,1-.9,1.3,4.184,4.184,0,0,1-1.2.8,4.013,4.013,0,0,1-1.5.3,4.146,4.146,0,0,1-1.6-.3,2.73,2.73,0,0,1-1.2-.9,5.67,5.67,0,0,1-.8-1.3,4.671,4.671,0,0,1-.3-1.7,5.23,5.23,0,0,1,.3-1.8,3.045,3.045,0,0,1,.9-1.3,4.7,4.7,0,0,1,1.2-.9,3.9,3.9,0,0,1,3,0A2.577,2.577,0,0,1,148.4,23.7Zm-.9,5.7a3.337,3.337,0,0,0,.5-1.2,6.621,6.621,0,0,0,.1-1.5,6.053,6.053,0,0,0-.2-1.5,3.337,3.337,0,0,0-.5-1.2,3.043,3.043,0,0,0-.8-.8,2.016,2.016,0,0,0-1.1-.3,2.375,2.375,0,0,0-1.2.3,3.043,3.043,0,0,0-.8.8,3.374,3.374,0,0,0-.4,1.2,6.6,6.6,0,0,0-.1,1.4c0,.5.1,1,.1,1.5a6.118,6.118,0,0,0,.5,1.2,3.043,3.043,0,0,0,.8.8,2.167,2.167,0,0,0,2.2,0A1.325,1.325,0,0,0,147.5,29.4Z" fill="#2b2b2b"/>
      <path id="Path_105" data-name="Path 105" d="M158.9,23.1a1.087,1.087,0,0,0-.5.1c-.2.1-.4.1-.5.2a2.186,2.186,0,0,0-.3.5,2.787,2.787,0,0,0-.1,1v5.9H157l-4.9-6.6v4.2a3.42,3.42,0,0,0,.1,1.1,1.069,1.069,0,0,0,.3.5.764.764,0,0,0,.5.2,1.75,1.75,0,0,0,.5.1v.5h-3.3v-.4a1.087,1.087,0,0,0,.5-.1c.2-.1.4-.1.5-.2a2.186,2.186,0,0,0,.3-.5,3.11,3.11,0,0,0,.1-1.1v-4a.9.9,0,0,0-.1-.5c-.1-.2-.1-.3-.2-.4a1.628,1.628,0,0,0-.6-.3,1.268,1.268,0,0,0-.6-.1v-.4h2.3L157,29V25.1a3.42,3.42,0,0,0-.1-1.1c-.1-.3-.1-.4-.3-.5-.1-.1-.3-.1-.5-.2a1.268,1.268,0,0,0-.6-.1v-.4h3.3v.3h.1Z" fill="#2b2b2b"/>
      <path id="Path_106" data-name="Path 106" d="M170.1,26.8a3.425,3.425,0,0,1-.4,1.8,4,4,0,0,1-1,1.2,3.694,3.694,0,0,1-1.4.7,8.752,8.752,0,0,1-1.6.2h-3.4v-.4h.4c.2,0,.3,0,.4-.1a.215.215,0,0,0,.2-.2c.1-.1.1-.2.1-.4V23.8a.367.367,0,0,0-.1-.3c0-.1-.1-.2-.3-.2-.1-.1-.2-.1-.4-.1a.6.6,0,0,1-.4-.1v-.4h3.5a5.9,5.9,0,0,1,1.4.2,4.5,4.5,0,0,1,1.2.6,2.765,2.765,0,0,1,1.1,1.3A5.91,5.91,0,0,1,170.1,26.8Zm-1.4,0a7.72,7.72,0,0,0-.2-1.5,3.88,3.88,0,0,0-.6-1.1,2.286,2.286,0,0,0-1-.7,4.961,4.961,0,0,0-1.3-.3h-.9v6.2a.779.779,0,0,0,.3.7,2,2,0,0,0,.9.2,2.768,2.768,0,0,0,1.3-.3,2.178,2.178,0,0,0,.9-.7,3.7,3.7,0,0,0,.5-1.1A6.149,6.149,0,0,0,168.7,26.8Z" fill="#2b2b2b"/>
      <path id="Path_107" data-name="Path 107" d="M177.9,28.4l-.2,2.4H171v-.4h.5c.2,0,.3-.1.4-.1.1-.1.2-.1.3-.2,0-.1.1-.2.1-.3V23.9a.367.367,0,0,0-.1-.3c0-.1-.1-.2-.3-.2-.1,0-.2-.1-.4-.1s-.3-.1-.4-.1v-.4h6.3v2H177a2.044,2.044,0,0,0-.5-.9c-.3-.3-.5-.5-.7-.5h-2.3v3.2h.9c.3,0,.5,0,.6-.1s.3-.1.4-.3a.758.758,0,0,0,.2-.4,1.087,1.087,0,0,0,.1-.5h.4v3.2h-.4c0-.2-.1-.4-.1-.6-.1-.2-.1-.4-.2-.4-.1-.1-.3-.2-.4-.3a3.536,3.536,0,0,0-.6-.1h-.9v2.4a1.268,1.268,0,0,0,.1.6.769.769,0,0,0,.2.3c.1.1.2.1.4.1h1.7a.6.6,0,0,0,.4-.1c.1-.1.3-.1.3-.2a5.548,5.548,0,0,0,.6-.8l.4-.8h.3Z" fill="#2b2b2b"/>
      <path id="Path_108" data-name="Path 108" d="M183.8,27.1a2.092,2.092,0,0,1,.4.6,1.95,1.95,0,0,1,.1.8,2.5,2.5,0,0,1-.8,1.8,2.724,2.724,0,0,1-2,.7,4.253,4.253,0,0,1-1.1-.2,1.884,1.884,0,0,1-.9-.4l-.2.4h-.5l-.1-2.8h.5a9.439,9.439,0,0,0,.3.9,3.508,3.508,0,0,0,.5.8,1.794,1.794,0,0,0,.7.5,2.92,2.92,0,0,0,.9.2,1.483,1.483,0,0,0,.7-.1,2.186,2.186,0,0,0,.5-.3c.1-.1.2-.3.3-.4a1.268,1.268,0,0,0,.1-.6,1.613,1.613,0,0,0-.3-.9,1.555,1.555,0,0,0-.8-.6,4.649,4.649,0,0,0-.9-.3,6.89,6.89,0,0,1-.8-.3,3.134,3.134,0,0,1-1.1-.8,1.844,1.844,0,0,1-.4-1.3,2.92,2.92,0,0,1,.2-.9,1.794,1.794,0,0,1,.5-.7,2.177,2.177,0,0,1,.8-.5,2.92,2.92,0,0,1,.9-.2,2.959,2.959,0,0,1,1,.2,2.01,2.01,0,0,1,.8.4l.2-.4h.5v2.7h-.5l-.3-.9a2.994,2.994,0,0,0-.4-.8,2.651,2.651,0,0,0-.6-.5,2,2,0,0,0-.9-.2,1.222,1.222,0,0,0-.9.3.975.975,0,0,0-.4.9,2.388,2.388,0,0,0,.2.9,4.349,4.349,0,0,0,.7.6,6.89,6.89,0,0,1,.8.3c.3.1.5.2.8.3a4.875,4.875,0,0,0,.7.3A1.822,1.822,0,0,1,183.8,27.1Z" fill="#2b2b2b"/>
      <path id="Path_109" data-name="Path 109" d="M188.9,30.8h-3.6v-.4h.4c.2,0,.3,0,.4-.1.1,0,.2-.1.3-.2s.1-.2.1-.4V23.8a.367.367,0,0,0-.1-.3c0-.1-.1-.2-.3-.2-.1,0-.3-.1-.4-.1-.2,0-.3-.1-.4-.1v-.4H189v.4h-.4c-.2,0-.3.1-.4.1s-.2.1-.3.2c0,.1-.1.2-.1.3v5.9a.367.367,0,0,0,.1.3c.1.1.2.2.3.2s.2.1.4.1.3.1.5.1v.5Z" fill="#2b2b2b"/>
      <path id="Path_110" data-name="Path 110" d="M197.7,27.6a.756.756,0,0,0-.4.1c-.2,0-.3.1-.4.1-.1.1-.2.1-.2.2s-.1.2-.1.4v1.9a8.8,8.8,0,0,1-1.5.5,7.719,7.719,0,0,1-1.5.2,4.013,4.013,0,0,1-1.5-.3,5.67,5.67,0,0,1-1.3-.8,6.014,6.014,0,0,1-.9-1.3,4.967,4.967,0,0,1,0-3.4,4.2,4.2,0,0,1,.9-1.4,3.805,3.805,0,0,1,1.3-.9,4.146,4.146,0,0,1,1.6-.3,3.73,3.73,0,0,1,1.2.2,3.552,3.552,0,0,1,.9.4l.2-.4h.5l.1,2.8h-.5l-.3-.9a2.177,2.177,0,0,0-.5-.8,4.349,4.349,0,0,0-.7-.6,2.959,2.959,0,0,0-1-.2,3.6,3.6,0,0,0-1.1.2,2.7,2.7,0,0,0-.8.7,3.337,3.337,0,0,0-.5,1.2,7.772,7.772,0,0,0-.2,1.6,7.72,7.72,0,0,0,.2,1.5,3.337,3.337,0,0,0,.5,1.2,2.361,2.361,0,0,0,.9.8,2.663,2.663,0,0,0,1.2.3,2.92,2.92,0,0,0,.9-.2,1.628,1.628,0,0,0,.6-.3V28.6c0-.2,0-.3-.1-.4q0-.15-.3-.3a.749.749,0,0,0-.5-.1.749.749,0,0,1-.5-.1v-.4h3.6v.3h.2Z" fill="#2b2b2b"/>
      <path id="Path_111" data-name="Path 111" d="M206.7,23.1a1.087,1.087,0,0,0-.5.1c-.2.1-.4.1-.5.2a2.186,2.186,0,0,0-.3.5c0,.3-.1.6-.1,1v5.9h-.5l-4.9-6.6v4.2a3.42,3.42,0,0,0,.1,1.1c.1.3.1.4.3.5a.764.764,0,0,0,.5.2,2.034,2.034,0,0,1,.5.1v.5H198v-.4a1.087,1.087,0,0,0,.5-.1c.2-.1.4-.1.5-.2a2.186,2.186,0,0,0,.3-.5,3.11,3.11,0,0,0,.1-1.1v-4a.9.9,0,0,0-.1-.5c-.1-.2-.1-.3-.2-.4a1.628,1.628,0,0,0-.6-.3,1.268,1.268,0,0,0-.6-.1v-.4h2.3l4.6,6.2V25.1a3.42,3.42,0,0,0-.1-1.1c-.1-.3-.1-.4-.3-.5-.1-.1-.3-.1-.5-.2a1.268,1.268,0,0,0-.6-.1v-.4h3.3v.3h.1Z" fill="#2b2b2b"/>
    </g>
    <g id="Group_677" data-name="Group 677">
      <path id="Path_112" data-name="Path 112" d="M88.6,39.5h-.7a4.771,4.771,0,0,0-.8-1.6q-.6-.9-1.2-.9a1.952,1.952,0,0,1-.7-.1H82.1v5.3h1.5a3.42,3.42,0,0,0,1.1-.1,1.612,1.612,0,0,0,.7-.4,1.628,1.628,0,0,0,.3-.6,2.92,2.92,0,0,0,.2-.9h.7v5.2h-.7a2.92,2.92,0,0,0-.2-.9,6.889,6.889,0,0,0-.3-.8,1.794,1.794,0,0,0-.7-.5,3.083,3.083,0,0,0-1-.1H82.2v4.5a.749.749,0,0,0,.1.5.781.781,0,0,0,.4.4,3.932,3.932,0,0,1,.6.2,1.952,1.952,0,0,0,.7.1v.6H78.3v-.7a1.952,1.952,0,0,0,.7-.1,3.536,3.536,0,0,0,.6-.1.781.781,0,0,0,.4-.4,1.083,1.083,0,0,0,.1-.6V38a.749.749,0,0,0-.1-.5.781.781,0,0,0-.4-.4,1.445,1.445,0,0,0-.7-.2,1.952,1.952,0,0,0-.7-.1v-.7H88.5l.1,3.4Z" fill="#2b2b2b"/>
      <path id="Path_113" data-name="Path 113" d="M100.4,37.8a6.923,6.923,0,0,1,1.4,2.2,8.675,8.675,0,0,1,.5,2.8,8.21,8.21,0,0,1-.5,2.8,6.356,6.356,0,0,1-1.4,2.2,5.579,5.579,0,0,1-2,1.4,6.874,6.874,0,0,1-2.4.5,6.551,6.551,0,0,1-2.5-.5,5.579,5.579,0,0,1-2-1.4,5.369,5.369,0,0,1-1.3-2.2,8.675,8.675,0,0,1-.5-2.8,8.807,8.807,0,0,1,.5-2.9,6.356,6.356,0,0,1,1.4-2.2,6.606,6.606,0,0,1,2-1.4,6.874,6.874,0,0,1,2.4-.5,5.327,5.327,0,0,1,4.4,2ZM99,47.1a10.837,10.837,0,0,0,.8-1.9,8.966,8.966,0,0,0,.2-2.4,10.074,10.074,0,0,0-.3-2.5,4.743,4.743,0,0,0-.8-1.9,3.745,3.745,0,0,0-1.3-1.2,3.425,3.425,0,0,0-1.8-.4,3.83,3.83,0,0,0-1.9.5,4.423,4.423,0,0,0-1.3,1.4,8.389,8.389,0,0,0-.7,1.9,8.578,8.578,0,0,0-.2,2.3,16.592,16.592,0,0,0,.2,2.4,5.449,5.449,0,0,0,.8,1.9A4.036,4.036,0,0,0,94,48.5a3.49,3.49,0,0,0,3.6,0A3.151,3.151,0,0,0,99,47.1Z" fill="#2b2b2b"/>
      <path id="Path_114" data-name="Path 114" d="M117.2,36.9a2.814,2.814,0,0,0-.8.1,3.385,3.385,0,0,0-.8.3.963.963,0,0,0-.4.9c0,.5-.1,1-.1,1.6v5.7a3.83,3.83,0,0,1-.5,1.9,3.745,3.745,0,0,1-1.2,1.3,5.066,5.066,0,0,1-1.5.7,8.753,8.753,0,0,1-1.6.2,6.648,6.648,0,0,1-2.1-.3,7.973,7.973,0,0,1-1.6-.8,4.7,4.7,0,0,1-.9-1.2,3.529,3.529,0,0,1-.3-1.4V38.1a.749.749,0,0,0-.1-.5c-.1-.1-.2-.3-.4-.4a1.421,1.421,0,0,0-.6-.2,1.268,1.268,0,0,0-.6-.1v-.7h5.5v.7a1.952,1.952,0,0,0-.7.1,3.536,3.536,0,0,0-.6.1c-.2.1-.4.2-.4.4a1.268,1.268,0,0,0-.1.6v7.3a4.1,4.1,0,0,0,.1,1.1,2.676,2.676,0,0,0,1.5,1.9,4.967,4.967,0,0,0,3.4,0,2.445,2.445,0,0,0,1.1-.9,2.355,2.355,0,0,0,.5-1,4.253,4.253,0,0,0,.2-1.1V40a8.622,8.622,0,0,0-.1-1.7,1.372,1.372,0,0,0-1.3-1.3,3.445,3.445,0,0,0-.9-.1v-.7h5.4l-.1.7Z" fill="#2b2b2b"/>
      <path id="Path_115" data-name="Path 115" d="M131.8,36.9c-.2,0-.4.1-.8.1a3.385,3.385,0,0,0-.8.3,1.268,1.268,0,0,0-.4.9,8.116,8.116,0,0,0-.1,1.7v9.6h-.8l-8-10.8v6.8a9.184,9.184,0,0,0,.1,1.8,1.372,1.372,0,0,0,1.3,1.3,5.073,5.073,0,0,0,.9.2v.6h-5.4v-.7a4.5,4.5,0,0,0,.8-.2,1.541,1.541,0,0,0,.7-.3,1.039,1.039,0,0,0,.4-.8c0-.4.1-1,.1-1.8V39.1a2.769,2.769,0,0,0-.1-.9,1.612,1.612,0,0,0-.4-.7,1.934,1.934,0,0,0-.9-.5,5.073,5.073,0,0,0-.9-.2v-.7h3.8l7.4,10V39.8a8.663,8.663,0,0,0-.1-1.8c-.1-.4-.2-.7-.4-.8a6.89,6.89,0,0,0-.8-.3,3.711,3.711,0,0,0-.9-.2V36h5.4l-.1.9Z" fill="#2b2b2b"/>
      <path id="Path_116" data-name="Path 116" d="M145.5,42.9a6.527,6.527,0,0,1-.6,2.9,6.422,6.422,0,0,1-1.6,2A8.359,8.359,0,0,1,141,49a7.834,7.834,0,0,1-2.6.4h-5.5v-.7a1.952,1.952,0,0,0,.7-.1,3.536,3.536,0,0,0,.6-.1.781.781,0,0,0,.4-.4,1.083,1.083,0,0,0,.1-.6V38a1.268,1.268,0,0,0-.1-.6.781.781,0,0,0-.4-.4,1.421,1.421,0,0,0-.6-.2c-.2,0-.4-.1-.6-.1V36h5.8a5.867,5.867,0,0,1,2.3.4,6.256,6.256,0,0,1,2,1,5.485,5.485,0,0,1,1.8,2.2A8.808,8.808,0,0,1,145.5,42.9Zm-2.3,0a6.051,6.051,0,0,0-.4-2.4,6.916,6.916,0,0,0-1-1.9,3.978,3.978,0,0,0-1.6-1.2,4.638,4.638,0,0,0-2.1-.4h-1.6V47.1a1.364,1.364,0,0,0,.5,1.2,2.81,2.81,0,0,0,1.5.3,4.638,4.638,0,0,0,2.1-.4A3.325,3.325,0,0,0,142,47a3.7,3.7,0,0,0,.8-1.8A13.66,13.66,0,0,0,143.2,42.9Z" fill="#2b2b2b"/>
      <path id="Path_117" data-name="Path 117" d="M159.4,49.4h-5.5v-.7a3.73,3.73,0,0,0,1.2-.2c.3-.1.5-.2.5-.3V48c0-.1,0-.2-.1-.2l-1.1-2.9h-4.6a7.6,7.6,0,0,0-.4,1.1l-.3.9a6.377,6.377,0,0,1-.2.7V48q0,.3.6.6a5.067,5.067,0,0,0,1.3.2v.6h-5v-.7a1.268,1.268,0,0,0,.6-.1c.2-.1.4-.1.6-.2.2-.2.4-.3.6-.5a2.931,2.931,0,0,0,.4-.8c.7-1.7,1.4-3.5,2.2-5.6s1.5-3.9,2.1-5.5h.7l4.4,11.4.3.6a1,1,0,0,0,.5.4.845.845,0,0,0,.6.2c.3,0,.4.1.6.1v.7ZM154.1,44l-2-5.1-2,5.1Z" fill="#2b2b2b"/>
      <path id="Path_118" data-name="Path 118" d="M170.6,39.8H170a6.89,6.89,0,0,1-.3-.8,4.054,4.054,0,0,0-.5-.9,4.349,4.349,0,0,0-.6-.7,2.092,2.092,0,0,0-.6-.4,1.952,1.952,0,0,1-.7-.1H166V47.4a1.268,1.268,0,0,0,.1.6.7.7,0,0,0,.5.4c.1,0,.3.1.7.2a2.814,2.814,0,0,0,.8.1v.7h-6.2v-.7a2.815,2.815,0,0,0,.8-.1,2.639,2.639,0,0,1,.7-.1,2.186,2.186,0,0,0,.5-.3c.1-.1.1-.4.1-.6V37h-1.2a1.949,1.949,0,0,0-.8.1.723.723,0,0,0-.6.4c-.2.2-.4.5-.6.7-.2.3-.3.6-.5.9a4.117,4.117,0,0,0-.3.8h-.6V36.3h11.5v3.5h-.3Z" fill="#2b2b2b"/>
      <path id="Path_119" data-name="Path 119" d="M177.4,49.4h-5.9v-.7a1.952,1.952,0,0,0,.7-.1c.3,0,.5-.1.7-.1.2-.1.4-.2.4-.3.1-.1.1-.3.1-.6V38.1a.749.749,0,0,0-.1-.5,1.082,1.082,0,0,0-.5-.4,6.373,6.373,0,0,0-.7-.2,1.952,1.952,0,0,0-.7-.1v-.7h5.9v.7a1.952,1.952,0,0,0-.7.1,1.445,1.445,0,0,0-.7.2,1,1,0,0,0-.5.4,1.268,1.268,0,0,0-.1.6v9.5a.749.749,0,0,0,.1.5.7.7,0,0,0,.5.4,3.932,3.932,0,0,1,.6.2,1.952,1.952,0,0,0,.7.1v.5h.2Z" fill="#2b2b2b"/>
      <path id="Path_120" data-name="Path 120" d="M189.6,37.8A6.923,6.923,0,0,1,191,40a8.675,8.675,0,0,1,.5,2.8,8.21,8.21,0,0,1-.5,2.8,6.356,6.356,0,0,1-1.4,2.2,5.579,5.579,0,0,1-2,1.4,6.874,6.874,0,0,1-2.4.5,6.551,6.551,0,0,1-2.5-.5,5.579,5.579,0,0,1-2-1.4,5.369,5.369,0,0,1-1.3-2.2,8.675,8.675,0,0,1-.5-2.8,8.807,8.807,0,0,1,.5-2.9,6.356,6.356,0,0,1,1.4-2.2,6.606,6.606,0,0,1,2-1.4,6.874,6.874,0,0,1,2.4-.5,6.963,6.963,0,0,1,2.5.5A4.714,4.714,0,0,1,189.6,37.8Zm-1.3,9.3a10.837,10.837,0,0,0,.8-1.9,8.966,8.966,0,0,0,.2-2.4,10.075,10.075,0,0,0-.3-2.5,4.743,4.743,0,0,0-.8-1.9,3.745,3.745,0,0,0-1.3-1.2,3.425,3.425,0,0,0-1.8-.4,3.83,3.83,0,0,0-1.9.5,4.423,4.423,0,0,0-1.3,1.4,8.389,8.389,0,0,0-.7,1.9,8.578,8.578,0,0,0-.2,2.3,16.593,16.593,0,0,0,.2,2.4,5.449,5.449,0,0,0,.8,1.9,4.036,4.036,0,0,0,1.3,1.3,3.49,3.49,0,0,0,3.6,0A4.673,4.673,0,0,0,188.3,47.1Z" fill="#2b2b2b"/>
      <path id="Path_121" data-name="Path 121" d="M206.7,36.9c-.2,0-.4.1-.8.1a3.385,3.385,0,0,0-.8.3,1.268,1.268,0,0,0-.4.9,8.116,8.116,0,0,0-.1,1.7v9.6h-.8l-8.1-10.7v6.8a9.183,9.183,0,0,0,.1,1.8,1.372,1.372,0,0,0,1.3,1.3,5.073,5.073,0,0,0,.9.2v.5h-5.4v-.7a4.5,4.5,0,0,0,.8-.2,1.541,1.541,0,0,0,.7-.3,1.039,1.039,0,0,0,.4-.8c0-.4.1-1,.1-1.8V39.1a2.768,2.768,0,0,0-.1-.9,1.612,1.612,0,0,0-.4-.7,1.934,1.934,0,0,0-.9-.5,5.073,5.073,0,0,0-.9-.2v-.7h3.8l7.4,10V39.8a8.663,8.663,0,0,0-.1-1.8c-.1-.4-.2-.7-.4-.8a6.89,6.89,0,0,0-.8-.3,3.711,3.711,0,0,0-.9-.2V36h5.4v.9Z" fill="#2b2b2b"/>
    </g>
    <text id="Est._2002" data-name="Est. 2002" transform="translate(19.8 59.5)" fill="#2b2b2b" font-size="6.6" font-family="Georgia"><tspan x="0" y="0">Est. 2002</tspan></text>
    <text id="I" transform="translate(6.9 34.7) rotate(-91.1)" fill="#2b2b2b" font-size="4" font-family="Georgia"><tspan x="0" y="0">I</tspan></text>
    <text id="N" transform="matrix(0.099, -0.995, 0.995, 0.099, 6.9, 32.599)" fill="#2b2b2b" font-size="4" font-family="Georgia"><tspan x="0" y="0">N</tspan></text>
    <text id="T" transform="matrix(0.218, -0.976, 0.976, 0.218, 7.3, 29.1)" fill="#2b2b2b" font-size="4" font-family="Georgia"><tspan x="0" y="0">T</tspan></text>
    <text id="E" transform="translate(7.961 26.18) rotate(-70.659)" fill="#2b2b2b" font-size="3.985" font-family="Georgia"><tspan x="0" y="0">E</tspan></text>
    <text id="R" transform="translate(9 23.239) rotate(-63.947)" fill="#2b2b2b" font-size="4.007" font-family="Georgia"><tspan x="0" y="0">R</tspan></text>
    <text id="A" transform="translate(10.5 20.301) rotate(-57.098)" fill="#2b2b2b" font-size="4" font-family="Georgia"><tspan x="0" y="0">A</tspan></text>
    <text id="C" transform="translate(12.219 17.661) rotate(-50.266)" fill="#2b2b2b" font-size="4.005" font-family="Georgia"><tspan x="0" y="0">C</tspan></text>
    <text id="T-2" data-name="T" transform="translate(14.2 15.311) rotate(-44.194)" fill="#2b2b2b" font-size="4.037" font-family="Georgia"><tspan x="0" y="0">T</tspan></text>
    <text id="I-2" data-name="I" transform="matrix(0.783, -0.622, 0.622, 0.783, 16.39, 13.26)" fill="#2b2b2b" font-size="3.975" font-family="Georgia"><tspan x="0" y="0">I</tspan></text>
    <text id="O" transform="translate(18 12) rotate(-32.799)" fill="#2b2b2b" font-size="4" font-family="Georgia"><tspan x="0" y="0">O</tspan></text>
    <text id="N-2" data-name="N" transform="matrix(0.904, -0.427, 0.427, 0.904, 20.899, 10.099)" fill="#2b2b2b" font-size="4" font-family="Georgia"><tspan x="0" y="0">N</tspan></text>
    <text id="D" transform="translate(25.52 8.14) rotate(-14.453)" fill="#2b2b2b" font-size="4.007" font-family="Georgia"><tspan x="0" y="0">D</tspan></text>
    <text id="E-2" data-name="E" transform="matrix(0.991, -0.131, 0.131, 0.991, 28.9, 7.3)" fill="#2b2b2b" font-size="3.99" font-family="Georgia"><tspan x="0" y="0">E</tspan></text>
    <text id="S" transform="translate(31.991 6.93) rotate(-1.146)" fill="#2b2b2b" font-size="4.001" font-family="Georgia"><tspan x="0" y="0">S</tspan></text>
    <text id="I-3" data-name="I" transform="matrix(0.998, 0.064, -0.064, 0.998, 34.7, 6.9)" fill="#2b2b2b" font-size="4" font-family="Georgia"><tspan x="0" y="0">I</tspan></text>
    <text id="G" transform="translate(36.8 7) rotate(9.701)" fill="#2b2b2b" font-size="4.02" font-family="Georgia"><tspan x="0" y="0">G</tspan></text>
    <text id="N-3" data-name="N" transform="translate(40.2 7.6) rotate(17.002)" fill="#2b2b2b" font-size="4" font-family="Georgia"><tspan x="0" y="0">N</tspan></text>
    <text id="F" transform="translate(44.9 9.299) rotate(27.298)" fill="#2b2b2b" font-size="4.01" font-family="Georgia"><tspan x="0" y="0">F</tspan></text>
    <text id="O-2" data-name="O" transform="translate(47.5 10.6) rotate(34.002)" fill="#2b2b2b" font-size="4" font-family="Georgia"><tspan x="0" y="0">O</tspan></text>
    <text id="U" transform="matrix(0.751, 0.661, -0.661, 0.751, 50.34, 12.569)" fill="#2b2b2b" font-size="3.996" font-family="Georgia"><tspan x="0" y="0">U</tspan></text>
    <text id="N-4" data-name="N" transform="matrix(0.659, 0.752, -0.752, 0.659, 53, 14.9)" fill="#2b2b2b" font-size="4" font-family="Georgia"><tspan x="0" y="0">N</tspan></text>
    <text id="D-2" data-name="D" transform="translate(55.301 17.6) rotate(55.998)" fill="#2b2b2b" font-size="4" font-family="Georgia"><tspan x="0" y="0">D</tspan></text>
    <text id="A-2" data-name="A" transform="matrix(0.449, 0.893, -0.893, 0.449, 57.199, 20.5)" fill="#2b2b2b" font-size="4" font-family="Georgia"><tspan x="0" y="0">A</tspan></text>
    <text id="T-3" data-name="T" transform="translate(58.56 23.36) rotate(70.117)" fill="#2b2b2b" font-size="3.998" font-family="Georgia"><tspan x="0" y="0">T</tspan></text>
    <text id="I-4" data-name="I" transform="matrix(0.254, 0.967, -0.967, 0.254, 59.5, 26.2)" fill="#2b2b2b" font-size="4" font-family="Georgia"><tspan x="0" y="0">I</tspan></text>
    <text id="O-3" data-name="O" transform="matrix(0.151, 0.988, -0.988, 0.151, 60.099, 28.2)" fill="#2b2b2b" font-size="4" font-family="Georgia"><tspan x="0" y="0">O</tspan></text>
    <text id="N-5" data-name="N" transform="matrix(0.023, 1, -1, 0.023, 60.6, 31.6)" fill="#2b2b2b" font-size="4" font-family="Georgia"><tspan x="0" y="0">N</tspan></text>
  </g>
</svg>
