<svg xmlns="http://www.w3.org/2000/svg" width="500" height="300" viewBox="0 0 500 300">
  <g id="Group_691" data-name="Group 691" transform="translate(-160 -1529)">
    <rect id="Rectangle_22" data-name="Rectangle 22" width="500" height="300" transform="translate(160 1529)" fill="#323d49"/>
    <g id="Layer_2" data-name="Layer 2" transform="translate(289.17 1661.503)">
      <g id="Layer_1" data-name="Layer 1" transform="translate(-0.002)">
        <path id="Path_77" data-name="Path 77" d="M9,8a8.788,8.788,0,0,0-9,8.936c0,5.255,3.842,8.928,9.348,8.928H12.38V22.4h-3A5.292,5.292,0,0,1,3.82,16.905c0-3.253,2.142-5.528,5.219-5.528s5.152,2.326,5.152,5.528V25.87h3.783V16.832A8.568,8.568,0,0,0,9,8Z" transform="translate(0.002 -2.111)" fill="#fff"/>
        <path id="Path_78" data-name="Path 78" d="M229.577,25.91a2.539,2.539,0,1,0,1.834.73,2.554,2.554,0,0,0-1.834-.73Z" transform="translate(-59.932 -6.839)" fill="#fff"/>
        <path id="Path_79" data-name="Path 79" d="M240.535,17.242c0-3.482,2.208-5.734,5.565-5.734a8.339,8.339,0,0,1,3.8.788V8.924a11.2,11.2,0,0,0-4.151-.824,8.82,8.82,0,0,0-9.068,9.171,8.788,8.788,0,0,0,9.068,9.112,12.284,12.284,0,0,0,4.321-.824V22.151a9.951,9.951,0,0,1-3.938.795A5.361,5.361,0,0,1,240.535,17.242Z" transform="translate(-62.469 -2.138)" fill="#fff"/>
        <path id="Path_80" data-name="Path 80" d="M215.006,2.83h-3.82V7.195H207.8l1.421,3.3h1.965V19.1c0,3.54,2.142,5.565,5.888,5.565a13.33,13.33,0,0,0,1.34-.066V21.231h-.508c-1.943,0-2.893-.8-2.893-2.444v-8.3H218.8v-3.3h-3.783Z" transform="translate(-54.848 -0.747)" fill="#fff"/>
        <path id="Path_81" data-name="Path 81" d="M311.377,8.1a6.514,6.514,0,0,0-5.484,3.055l-.346.559-.287-.6c-1-2.112-2.517-3.018-5.049-3.018A6.036,6.036,0,0,0,296.2,9.653a4.593,4.593,0,0,0-1.369,2.054h0V8.586h-3.4V25.9h3.746V15.5a3.857,3.857,0,0,1,3.791-4,3.7,3.7,0,0,1,3.724,4V25.9h3.746V15.5a3.755,3.755,0,1,1,7.493,0V25.9h3.747V15.159C317.67,10.61,315.4,8.1,311.377,8.1Z" transform="translate(-76.922 -2.138)" fill="#fff"/>
        <path id="Path_82" data-name="Path 82" d="M190.2,8.1c-5.152,0-8.479,3.489-8.479,8.9a8.976,8.976,0,0,0,9.385,9.385,14.419,14.419,0,0,0,6.47-1.3V21.71a14.522,14.522,0,0,1-6.227,1.3c-2.944,0-5.152-1.435-5.756-3.739l-.118-.449h13.109V17C198.576,11.6,195.285,8.1,190.2,8.1Zm-4.865,7.8v-.39a4.445,4.445,0,0,1,4.8-4.21c2.731,0,4.644,1.619,4.836,4.218v.39Z" transform="translate(-47.964 -2.138)" fill="#fff"/>
        <path id="Path_83" data-name="Path 83" d="M269.436,8.1C264.07,8.1,260,12,260,17.168a9.4,9.4,0,0,0,18.8,0A8.984,8.984,0,0,0,269.436,8.1Zm0,14.772a5.432,5.432,0,0,1-5.528-5.7,5.52,5.52,0,1,1,11.041,0A5.448,5.448,0,0,1,269.436,22.872Z" transform="translate(-68.626 -2.138)" fill="#fff"/>
        <path id="Path_84" data-name="Path 84" d="M112.065,8.523h0a4.615,4.615,0,0,0-2.208,1.119,4.77,4.77,0,0,0-1.376,2.142h0V8.7h-3.4V25.975h3.746V16.627a4.652,4.652,0,0,1,1.347-3.577,5.013,5.013,0,0,1,3.805-1.082V8.42a6.735,6.735,0,0,0-1.914.1Z" transform="translate(-27.735 -2.216)" fill="#fff"/>
        <path id="Path_85" data-name="Path 85" d="M160.349,6.278h-3.025V9.753h3a5.235,5.235,0,0,1,5.565,5.491c0,3.283-2.1,5.528-5.219,5.528s-5.152-2.208-5.152-5.668V0H151.73V15.207c0,6.19,4.519,8.965,9,8.965a8.685,8.685,0,0,0,9-8.965C169.7,9.863,165.914,6.278,160.349,6.278Z" transform="translate(-40.048)" fill="#fff"/>
        <path id="Path_86" data-name="Path 86" d="M48.024,0H44.241V15.1c0,3.5-1.987,5.668-5.152,5.668s-5.219-2.208-5.219-5.528a5.2,5.2,0,0,1,5.565-5.491h3V6.278H39.368c-5.587,0-9.37,3.585-9.37,8.928a8.685,8.685,0,0,0,9.024,8.965c4.483,0,9-2.775,9-8.965Z" transform="translate(-7.916)" fill="#fff"/>
        <path id="Path_87" data-name="Path 87" d="M82.471,8a8.788,8.788,0,0,0-9,8.936c0,5.255,3.842,8.928,9.348,8.928h3.025V22.4H82.854a5.292,5.292,0,0,1-5.565-5.491c0-3.253,2.142-5.528,5.219-5.528s5.152,2.326,5.152,5.528V25.87h3.783V16.832C91.473,11.679,87.69,8,82.471,8Z" transform="translate(-19.391 -2.111)" fill="#fff"/>
        <path id="Path_88" data-name="Path 88" d="M59.593,22.353c0,4.615-2.267,7.265-6.22,7.265H52.24v3.4h1.1c6.19,0,10.04-4.048,10.04-10.562V8.81H59.593Z" transform="translate(-13.788 -2.325)" fill="#fff"/>
        <path id="Path_89" data-name="Path 89" d="M129.671,8a8.788,8.788,0,0,0-9,8.965c0,5.255,3.842,8.928,9.348,8.928h3.033V22.4h-3a5.292,5.292,0,0,1-5.565-5.491c0-3.253,2.142-5.528,5.219-5.528s5.152,2.326,5.152,5.528V25.87h3.783V16.832C138.673,11.679,134.9,8,129.671,8Z" transform="translate(-31.849 -2.111)" fill="#fff"/>
      </g>
    </g>
  </g>
</svg>
