<svg xmlns="http://www.w3.org/2000/svg" xmlns:xlink="http://www.w3.org/1999/xlink" width="135.881" height="140.486" viewBox="0 0 135.881 140.486">
  <defs>
    <clipPath id="clip-path">
      <rect id="Rectangle_36" data-name="Rectangle 36" width="66.739" height="128.95" fill="#2b2b2b"/>
    </clipPath>
  </defs>
  <g id="Group_674" data-name="Group 674" transform="translate(86.284) rotate(42)">
    <g id="Group_673" data-name="Group 673" transform="translate(0 0)" clip-path="url(#clip-path)">
      <path id="Path_76" data-name="Path 76" d="M18.183,128.568a2.338,2.338,0,0,0,1.882.339c.818-.071,1.632-.19,2.452-.237q5.038-.274,10.077-.519c2.7-.132,5.414-.153,8.107-.391a12.414,12.414,0,0,0,3.269-1,1.013,1.013,0,0,0,.4-1.624,2.55,2.55,0,0,1-1.021-2.09,2.2,2.2,0,0,0-.541-1.072c-.741-.983-1.523-1.934-2.287-2.9q-3.275-4.156-6.549-8.317c-1.825-2.326-3.636-4.658-5.468-6.978-.515-.651-.843-.625-1.3.308-.292.593-.756.5-1.188.664a2.413,2.413,0,0,0-1.333,3.73c1.3,1.9,2.756,3.682,4.132,5.518.439.584.839,1.19,1.256,1.786-.89.237-1.519-.359-2.191-.73a13.5,13.5,0,0,1-1.582-1.164c-.716-.543-1.406-1.122-2.144-1.634-1.215-.843-2.5-1.585-3.671-2.475a17.023,17.023,0,0,1-3.123-2.756c-1.949-2.429-3.723-5-5.566-7.508.043-.034.087-.062.133-.094-.736-1.188-1.463-2.378-2.2-3.562a15.582,15.582,0,0,1-2.162-5.205c-.277-1.363-.667-2.708-.889-4.077a17.329,17.329,0,0,1-.26-3.433c.11-2.7.327-5.4.517-8.092A10.552,10.552,0,0,1,8,70.542c.3-.538.588-1.081.881-1.621a36.618,36.618,0,0,0,3.647,5.862,34.767,34.767,0,0,0,9.144,8.5,23.96,23.96,0,0,0,3.68,1.971c3.894,1.613,1.5.664,2.806,1.4a6.98,6.98,0,0,0,.667.312,32.352,32.352,0,0,0,13.1,2.827,33.651,33.651,0,0,0,9.929-1.563c3.388-1.048,6.307-3.131,9.252-5.078A19.478,19.478,0,0,0,63.416,81.3a4.794,4.794,0,0,0,1.244-1.489A22.676,22.676,0,0,0,65.654,63.5a27.862,27.862,0,0,0-4.686-8.859c-1.168-1.4-2.535-2.569-3.719-3.92A28.85,28.85,0,0,0,49.1,44.458a19.815,19.815,0,0,0-16.18-1.5c-4.611,1.5-9.085,3.318-13.528,5.266a28.44,28.44,0,0,0-8.158,5.532c-.036-.174-.067-.347-.1-.526.046-1.42-1.289-4.981-.519-10.215a62.094,62.094,0,0,1,1.244-6.908,14.392,14.392,0,0,1,.62-2.367c1.411-3.04,2.6-6.187,4.661-8.816,1.437-1.831,2.747-3.8,4.334-5.535a48.465,48.465,0,0,1,10.58-8.942,34.347,34.347,0,0,1,4.014-2A33.674,33.674,0,0,1,55.205,5.811a19.549,19.549,0,0,0,3.881.1c.192-.007.53-.207.5-.273a1.032,1.032,0,0,0-.492-.608c-.636-.214-1.328-.295-1.98-.457a3.423,3.423,0,0,1-.736-.4c.168-.112.307-.3.5-.324.578-.075.893-.249.849-.721a1.69,1.69,0,0,1,.082-1.077c.334-.5,1.107-.164,1.712-.118a.715.715,0,0,0,.269,0c.2-.087.492-.167.523-.295a.6.6,0,0,0-.305-.5A3.371,3.371,0,0,0,58.99.785,45.406,45.406,0,0,0,51.068,0C50.44,0,49.818.066,49.2.1c-.968.065-1.928.169-2.877.253C45.27.449,44.22.5,43.192.67a42.026,42.026,0,0,0-7.5,1.968A39.194,39.194,0,0,0,27.058,6.9a60.493,60.493,0,0,0-7.332,5.745,30.419,30.419,0,0,0-3.41,3.34c-1.29,1.665-2.657,3.248-3.8,5.009a62.3,62.3,0,0,0-3.774,7.151c-2.3,4.8-4.989,15.361-4.209,21.77.182,3.343.876,6.728,1.311,10.239a34.507,34.507,0,0,0-3.686,7.1,24.422,24.422,0,0,0-1.162,4.01,63.514,63.514,0,0,0-.973,9.05,29.753,29.753,0,0,0,.542,6.852A69.268,69.268,0,0,0,3.539,98.311a37.116,37.116,0,0,0,6.026,10.356,48.221,48.221,0,0,0,5.278,5.141,27.88,27.88,0,0,0,5.469,4.151c1.582.86,3.107,1.829,4.63,2.788.222.139.3.507.443.767a2.31,2.31,0,0,1-.674.2c-.821,0-1.638-.063-2.46-.07-1.313,0-2.631-.038-3.936.059a2.165,2.165,0,0,0-1.25.7c-.374.394.133.678.315,1.02a1.283,1.283,0,0,1-.082.872c-.141.408-.257.794.1,1.133a1.284,1.284,0,0,1,.444,1.326,1.6,1.6,0,0,0,.338,1.813m2.986-15.976a.619.619,0,0,1,.183.113,2.725,2.725,0,0,1,.179.273l.078.005c.048.016.1.035.145.052-.054.011-.112.022-.167.03-.016-.03-.038-.058-.056-.087a.7.7,0,0,1-.33-.052c-.058-.031-.024-.218-.032-.334m.452-99.04c.371-.413.745-.821,1.147-1.209.919-.886,1.887-1.732,2.889-2.538.254-.2.506-.413.776-.59a53.546,53.546,0,0,1,5.96-3.271,44.909,44.909,0,0,1,5.655-2.427,38.8,38.8,0,0,1,6.86-1.476,36.464,36.464,0,0,1,4.849-.363,5.578,5.578,0,0,1,1.446.316c.044.009.023.258,0,.265a15.039,15.039,0,0,1-1.492.217,45.313,45.313,0,0,0-7.415,1l0,.005a47.169,47.169,0,0,0-6.51,2c-.971.371-1.972.662-2.919,1.09a44.279,44.279,0,0,0-10.81,6.981.634.634,0,0,1-.19.14,1.573,1.573,0,0,1-.313.052.543.543,0,0,1,.066-.192m-4.8,4.982A10.411,10.411,0,0,1,19.5,15.591a2.776,2.776,0,0,1,.381-.219,2,2,0,0,1-.211.472c-.393.491-.8.971-1.3,1.61-.373.377-.854.89-1.332,1.411a2.112,2.112,0,0,1-.335.258,1.737,1.737,0,0,1,.113-.589m-2.958,4.311a3.259,3.259,0,0,1,.37-.6c.269-.326.569-.616.864-.917-.182.342-.354.685-.429.845-.249.374-.359.586-.506.764-.063.078-.2.085-.3.126a.516.516,0,0,1,.005-.214M12.84,24.788c.032.024.061.051.09.074-.047.038-.1.075-.145.113.02-.062.039-.125.055-.187M8.075,36.828a41.327,41.327,0,0,1,1.89-6.458c.071-.182.3-.3.455-.447a2.026,2.026,0,0,1-.016.652c-.383,1.037-.761,2.082-1.092,3.143-.038-.009-.075-.023-.114-.031-.33,1.061-.613,2.144-.869,3.234a2.633,2.633,0,0,1-.182.421,1.6,1.6,0,0,1-.071-.515m0,15.287c.017-.034.039-.069.052-.1.077.129.159.254.226.389a1.939,1.939,0,0,1,.093.363c.012.108.043.346.055.59,0,.044-.07.1-.11.147-.052-.055-.132-.1-.159-.16-.065-.409-.108-.819-.157-1.227m11.24,23.577a.271.271,0,0,1-.087.215c-.04.042-.157.083-.192.058-.564-.418-1.119-.849-1.609-1.223.077-.34.062-.535.156-.624a.465.465,0,0,1,.43-.077,2.54,2.54,0,0,1,1.3,1.65M32.994,84.6l-.136-.1.156.024.14.061Zm9.063,3.227c0,.069-.058.136-.168.362-.724-.083-1.507-.168-2.291-.268-.043-.005-.1-.1-.1-.16,0-.074.04-.19.089-.2a3.35,3.35,0,0,1,2.351.113.226.226,0,0,1,.121.157M60.813,64.915c.012-.058.022-.121.038-.182-.035-.135-.067-.265-.1-.4.056.042.159.09.155.121a2.221,2.221,0,0,1-.055.276c.015.066.034.135.05.2-.015.061-.027.118-.039.179-.015-.066-.034-.133-.048-.2M47.369,45.475c.087.081.171.163.258.243.058.016.11.038.165.052q.373.069.748.132c.048.031.1.066.145.1a2.2,2.2,0,0,1,.229.027c.026.005.032.1.047.163L48.686,46c-.055,0-.112-.011-.165-.017-.25-.043-.5-.087-.752-.129l-.141-.135a2.249,2.249,0,0,1-.234-.073c-.027-.013-.016-.11-.024-.171m2.141,3.917c.034.026.07.047.1.071.058-.005.116-.008.172-.011-.036.015-.085.061-.116.047a.266.266,0,0,1-.056-.036c-.04,0-.081,0-.121,0l-.1-.116ZM45.1,44.532l.02.152L45,44.576Zm-.465,3.259c-.013-.073.038-.155.061-.231a2.123,2.123,0,0,1,1.993.482.227.227,0,0,1-.039.215.277.277,0,0,1-.219.058c-.55-.1-1.1-.213-1.654-.336-.059-.013-.126-.116-.141-.187m-15.982.087a6.13,6.13,0,0,1,.854-.444c.112-.044.276.042.418.073-.11.1-.217.208-.332.3a2.018,2.018,0,0,1-.336.168c-.1.034-.334.113-.564.176-.048.013-.114-.05-.169-.077.042-.069.067-.163.129-.2m-7.362,6.7a22.416,22.416,0,0,1,7.452-3.71c2.067-.525,4.1-1.2,6.152-1.773a4.915,4.915,0,0,1,2.67-.149A6.051,6.051,0,0,0,38.775,49c3.266.182,6.45.4,9.449,2.144a22.418,22.418,0,0,1,6.3,5.39,16.509,16.509,0,0,1,3.669,8.74,9.5,9.5,0,0,0,.811,3.579,2.957,2.957,0,0,1,.2,1.428c-.022.738-.226,1.474-.2,2.207a5.43,5.43,0,0,1-1.726,3.945c-1.231,1.32-2.444,2.675-3.789,3.873a10.232,10.232,0,0,1-6.822,3.013c-.881.005-1.755-.351-2.643-.428-1.014-.086-10.81-.287-17.919-4.647a17.369,17.369,0,0,1-2.954-2.6,30.448,30.448,0,0,1-2.979-3.27c-1.728-2.293-3.369-4.653-4.98-7.025a21.9,21.9,0,0,1-1.687-2.93q2.367-2.663,4.848-5.232a20.976,20.976,0,0,1,2.936-2.6M4.7,75.089c.016-.069.108-.116.161-.174a.488.488,0,0,1,.219-.007c.056.026.132.1.132.16,0,.974.023,1.949-.008,2.923-.069,2.034-.159,4.068-.247,6.1a3.53,3.53,0,0,1-.079.472c-.11-.1-.3-.183-.328-.3A18.146,18.146,0,0,1,4.7,75.089m6.2,32.185a2.244,2.244,0,0,1-.479-.312,5.9,5.9,0,0,1-.453-.608c-.379-.391-.623-.612-.821-.866-.063-.079-.009-.253-.007-.381.147.05.351.055.433.157.4.507.781,1.034,1.154,1.571a1.885,1.885,0,0,1,.172.438" transform="translate(0 0)" fill="#2b2b2b" fill-rule="evenodd"/>
    </g>
  </g>
</svg>
