<svg xmlns="http://www.w3.org/2000/svg" xmlns:xlink="http://www.w3.org/1999/xlink" width="53.286" height="83.311" viewBox="0 0 53.286 83.311">
  <defs>
    <clipPath id="clip-path">
      <rect id="Rectangle_30" data-name="Rectangle 30" width="34.534" height="76.997" transform="translate(0 0)" fill="#2b2b2b"/>
    </clipPath>
  </defs>
  <g id="Group_11" data-name="Group 11" transform="matrix(-0.966, -0.259, 0.259, -0.966, 33.357, 83.312)">
    <g id="Group_10" data-name="Group 10" clip-path="url(#clip-path)">
      <path id="Path_2" data-name="Path 2" d="M9.721,22.6c.152-1.65.277-3.3.464-4.952a106.341,106.341,0,0,1,1.84-12.1,10.512,10.512,0,0,0,.257-4.318c-.171-.95.126-1.065,1.159-1.177,3.737-.405,6.648,1.522,9.6,3.314a82.384,82.384,0,0,1,8.033,5.9,8.948,8.948,0,0,0,2.285,1.4,1.578,1.578,0,0,1,1.155,1.758,1.3,1.3,0,0,1-.416.87,1.355,1.355,0,0,0-.756,1.132,1.325,1.325,0,0,0,.567,1.252,1.413,1.413,0,0,1,.4.469.714.714,0,0,1,.023.567.578.578,0,0,1-.52.178,3.448,3.448,0,0,1-.92-.46c-1.71-1.178-3.416-2.36-5.109-3.562-.733-.522-1.417-1.115-2.149-1.636-.779-.557-1.591-1.069-2.389-1.6-.5,1.163.511,1.9.856,2.8A40.7,40.7,0,0,1,26.825,25.4a60.653,60.653,0,0,1,.142,7.263,39.632,39.632,0,0,1-.794,5.964c-.487,2.088-.752,4.216-1.4,6.281A72.685,72.685,0,0,1,19.3,58.554c-.84,1.512-1.61,3.065-2.47,4.568-.478.837-1.077,1.607-1.615,2.412a17.877,17.877,0,0,1-1.382,2.06c-2.446,2.722-4.642,5.7-7.807,7.7-.7.442-1.324.994-2,1.476a.945.945,0,0,1-1.553-.627c-.243-.961-.35-1-1.2-.867-.133.021-.287.177-.38.141a1.917,1.917,0,0,1-.827-.469A.76.76,0,0,1,.13,74.21c.832-.493.8-1.165.588-1.962A3.135,3.135,0,0,1,.7,71.008a.958.958,0,0,1,.423-.645c3.408-1.61,5.753-4.511,8.457-6.968.665-.6,1.592-1.233,1.04-2.452-.073-.163.151-.518.312-.725a41.384,41.384,0,0,0,5.256-8.932,37.836,37.836,0,0,0,2.847-8.875c.554-3.27,1-6.56,1.489-9.843a21.158,21.158,0,0,0,.023-5.184c-.276-2.9-.556-5.792-.876-8.684a12.047,12.047,0,0,0-.51-2.433c-.453-1.38-1-2.728-1.517-4.084a3.89,3.89,0,0,0-.389-.732c-.069-.105-.255-.248-.314-.219-.149.073-.348.216-.369.356-.269,1.849-.571,3.7-.741,5.558-.12,1.305-.041,2.628-.071,3.943a2.759,2.759,0,0,1-1.02,2.558,10.88,10.88,0,0,0-1.455,1.727.535.535,0,0,1-.935-.305,1.579,1.579,0,0,0-1.05-1.583c-.665-.25-.646-.326-.737.363a2.047,2.047,0,0,1-.07.608.856.856,0,0,1-.44.3c-.035.014-.219-.176-.224-.278-.033-.621-.034-1.244-.046-1.867l-.066-.01m12.156,26.4c-.1.072-.232.128-.281.226-.028.057.083.182.132.276a.56.56,0,0,0,.085-.169c.013-.126.005-.254.006-.381.579-.484.588-1.2.755-1.853.027-.1-.093-.235-.145-.354-.1.082-.275.152-.29.247-.106.666-.179,1.339-.262,2.008M23.4,43.942a2.586,2.586,0,0,0-.264.508c-.026.085.083.209.131.316.054-.1.152-.193.153-.29a3.728,3.728,0,0,0-.077-.582,3.556,3.556,0,0,0,.778-2.022c.025-.114-.065-.253-.1-.381-.082.089-.217.17-.237.271-.14.723-.258,1.453-.382,2.18m2.223-14.869c-.065-.224-.173-.589-.278-.953-.667.219-.312.78-.382,1.189a2.253,2.253,0,0,0,.048.791.322.322,0,0,0,.272.171.382.382,0,0,0,.25-.245,8.994,8.994,0,0,0,.09-.953M23,24.274c-.067-.213-.129-.406-.19-.6a2.251,2.251,0,0,0-.134.565,2.38,2.38,0,0,0,.151.582q.086-.275.173-.549" fill="#2b2b2b" fill-rule="evenodd"/>
    </g>
  </g>
</svg>
